<?xml version="1.0" standalone="no"?>
<!DOCTYPE svg PUBLIC "-//W3C//DTD SVG 20010904//EN"
 "http://www.w3.org/TR/2001/REC-SVG-20010904/DTD/svg10.dtd">
<svg version="1.0" xmlns="http://www.w3.org/2000/svg"
 width="50.000000pt" height="50.000000pt" viewBox="0 0 50.000000 50.000000"
 preserveAspectRatio="xMidYMid meet">

<g transform="translate(0.000000,50.000000) scale(0.100000,-0.100000)"
fill="#000000" stroke="none">
<path d="M163 403 l-93 -4 0 -54 c0 -76 5 -85 52 -85 22 0 37 -4 33 -10 -3 -5
-12 -7 -20 -3 -8 3 -15 1 -15 -5 0 -15 30 -82 36 -82 4 0 22 9 41 21 27 17 31
24 22 35 -9 11 -6 16 15 25 49 23 103 -40 77 -90 -18 -33 -58 -38 -86 -11 -23
22 -26 22 -43 7 -10 -10 -24 -17 -30 -17 -23 0 -12 -25 21 -47 50 -33 97 -38
144 -15 58 30 79 98 53 166 -9 25 -8 26 31 26 l40 0 -3 73 -3 72 -90 1 c-49 0
-132 -1 -182 -3z m247 -28 c-7 -8 -8 -15 -3 -15 5 0 10 -13 11 -30 1 -19 -2
-30 -10 -30 -9 0 -8 -3 2 -11 11 -7 -2 -8 -45 -4 -70 7 -137 8 -218 3 l-57 -4
0 48 0 47 63 -2 c34 -2 73 0 87 3 14 4 60 7 104 8 69 2 77 0 66 -13z m-80
-124 c24 -24 29 -37 28 -75 -1 -62 -22 -87 -77 -93 -53 -5 -125 23 -98 39 12
6 24 4 39 -6 32 -23 61 -20 92 9 55 51 16 145 -62 145 -26 0 -74 -39 -68 -55
6 -16 -21 -28 -30 -14 -3 6 9 26 27 45 28 28 40 34 77 34 35 0 49 -6 72 -29z"/>
<path d="M130 340 c-9 -16 -8 -22 5 -26 21 -8 39 10 32 30 -9 22 -24 20 -37
-4z m30 -11 c0 -5 -7 -9 -15 -9 -9 0 -12 6 -9 15 6 15 24 11 24 -6z"/>
<path d="M234 345 c-3 -8 -3 -19 0 -24 10 -16 36 -1 36 20 0 22 -28 26 -36 4z
m26 -4 c0 -6 -4 -13 -10 -16 -5 -3 -10 1 -10 9 0 9 5 16 10 16 6 0 10 -4 10
-9z"/>
<path d="M340 345 c-10 -11 -10 -19 -2 -27 15 -15 44 -2 40 19 -4 23 -22 27
-38 8z m21 -18 c-13 -13 -26 -3 -16 12 3 6 11 8 17 5 6 -4 6 -10 -1 -17z"/>
</g>
</svg>
