<?xml version="1.0" standalone="no"?>
<!DOCTYPE svg PUBLIC "-//W3C//DTD SVG 20010904//EN"
 "http://www.w3.org/TR/2001/REC-SVG-20010904/DTD/svg10.dtd">
<svg version="1.0" xmlns="http://www.w3.org/2000/svg"
 width="100.000000pt" height="100.000000pt" viewBox="0 0 100.000000 100.000000"
 preserveAspectRatio="xMidYMid meet">

<g transform="translate(0.000000,100.000000) scale(0.100000,-0.100000)"
fill="#000000" stroke="none">
<path d="M230 801 l-85 -6 0 -120 c0 -66 3 -128 7 -137 6 -15 21 -18 87 -18
70 0 80 -2 74 -16 -4 -11 -14 -14 -34 -10 -16 3 -31 1 -35 -5 -8 -13 55 -169
69 -169 6 0 39 17 74 37 65 39 80 66 42 78 -19 6 -20 8 -4 26 68 74 198 18
212 -91 7 -47 -12 -81 -60 -110 -53 -33 -85 -26 -134 27 l-44 47 -22 -27 c-12
-15 -40 -34 -62 -41 -54 -19 -55 -39 -3 -77 116 -85 223 -103 324 -54 122 60
168 209 105 333 -12 23 -21 44 -21 47 0 3 34 5 75 5 63 0 77 3 82 17 4 10 7
74 7 143 l1 125 -285 1 c-157 0 -323 -2 -370 -5z m126 -46 c4 -8 10 -15 15
-15 5 0 9 7 9 15 0 21 17 19 30 -5 6 -11 15 -20 19 -20 5 0 7 9 4 20 -5 19 0
20 85 20 56 0 93 -4 98 -11 5 -8 8 -8 14 0 4 8 42 11 116 9 102 -3 107 -4 77
-17 -42 -17 -43 -35 -3 -26 34 7 42 -10 10 -20 -11 -3 -20 -11 -20 -16 0 -6 9
-7 20 -4 18 6 20 2 20 -40 0 -45 -1 -47 -25 -41 -30 8 -34 -10 -5 -19 44 -14
15 -25 -65 -25 -69 0 -94 4 -128 22 -59 31 -165 31 -224 0 -50 -26 -95 -30
-87 -7 4 8 2 15 -4 15 -5 0 -15 -7 -22 -15 -13 -16 -35 -21 -25 -6 3 5 1 12
-4 16 -5 3 -14 -3 -20 -12 -9 -15 -12 -15 -20 -4 -7 11 -10 11 -16 0 -14 -22
-24 20 -24 109 -1 83 8 99 37 70 9 -9 12 -9 12 -1 0 7 21 14 48 16 26 2 53 4
60 5 7 1 15 -5 18 -13z m139 -195 c5 -8 11 -8 20 0 18 15 80 -2 126 -33 94
-63 116 -220 42 -308 -33 -38 -99 -74 -106 -56 -4 9 -8 8 -16 -3 -9 -13 -11
-13 -11 3 0 9 -4 17 -10 17 -5 0 -10 -7 -10 -15 0 -8 -4 -15 -10 -15 -5 0 -10
5 -10 11 0 8 -4 8 -14 0 -10 -8 -16 -9 -21 -1 -3 6 -11 8 -16 5 -5 -4 -9 -1
-9 5 0 7 -8 9 -20 5 -16 -5 -19 -3 -13 11 5 13 2 15 -15 9 -14 -4 -22 -2 -22
5 0 6 -4 9 -9 6 -5 -3 -14 0 -20 8 -9 11 -5 18 22 34 32 18 34 18 45 2 14 -23
73 -50 109 -50 16 0 50 14 76 30 26 17 52 30 57 30 5 0 9 8 9 18 0 9 4 43 9
75 5 31 5 57 0 57 -4 0 -8 9 -8 20 0 11 -5 20 -10 20 -6 0 -10 8 -8 18 2 9 -2
16 -9 15 -7 -2 -10 4 -6 13 5 13 2 15 -15 10 -16 -6 -28 0 -47 20 -14 15 -25
22 -25 16 0 -6 -20 -10 -44 -10 -49 0 -78 -12 -118 -50 -33 -30 -34 -39 -10
-65 16 -19 16 -20 0 -14 -10 4 -18 2 -18 -3 0 -5 -7 -7 -15 -4 -11 5 -13 2 -9
-10 3 -9 2 -16 -4 -16 -6 0 -15 14 -21 30 -9 28 -7 34 37 81 26 29 65 60 87
70 47 22 52 22 60 9z"/>
<path d="M487 719 c-43 -25 -38 -89 7 -89 25 0 56 28 56 52 0 13 -30 48 -41
48 -2 0 -12 -5 -22 -11z m33 -53 c-28 -34 -58 -13 -33 23 14 21 17 21 31 7 13
-12 13 -18 2 -30z"/>
<path d="M685 696 c-28 -28 -31 -46 -13 -64 31 -31 96 6 83 47 -3 12 -15 26
-26 31 -15 9 -24 6 -44 -14z m45 -40 c-7 -9 -18 -16 -26 -16 -22 0 -27 20 -8
41 16 17 19 18 32 5 13 -12 13 -18 2 -30z"/>
<path d="M260 691 c-25 -48 -5 -79 45 -67 29 7 44 49 25 71 -18 21 -57 19 -70
-4z m58 -23 c-4 -30 -48 -39 -48 -10 0 24 8 32 32 32 14 0 19 -6 16 -22z"/>
<path d="M640 699 c0 -5 5 -7 10 -4 6 3 10 8 10 11 0 2 -4 4 -10 4 -5 0 -10
-5 -10 -11z"/>
<path d="M600 640 c0 -5 5 -10 11 -10 5 0 7 5 4 10 -3 6 -8 10 -11 10 -2 0 -4
-4 -4 -10z"/>
</g>
</svg>
